#!OML:ASF F:\VICON\USERDATA\INSTALL\Justin_Nancy\Justin_Nancy.ASF
:FULLY-SPECIFIED
:DEGREES
16
root 13.0907 16.8633 -25.0911 4.18584 -6.94928 6.24816
lowerback 15.4032 0.407271 -0.955196
upperback 2.10094 0.468927 1.38503
thorax -6.42142 0.26419 1.91528
lowerneck -18.6539 -3.31348 -9.86906
upperneck 10.1968 -2.57593 4.2027
head 6.31295 -1.29443 2.66422
rclavicle -1.78906e-014 -1.59028e-014
rhumerus -52.4618 7.47782 -86.5692
rradius 89.6964
rwrist -7.5415
rhand -18.946 31.0221
rfingers 7.12502
rthumb 7.35726 1.17006
lclavicle -1.78906e-014 -1.59028e-014
lhumerus -47.2307 -0.605562 90.6131
lradius 87.1114
lwrist 26.765
lhand -27.396 19.8669
lfingers 7.12502
lthumb -0.8026 49.8451
rfemur -26.6555 2.6127 26.9934
rtibia 49.5014
rfoot -16.4348 -12.4429
rtoes 1.44288
lfemur -18.7769 7.17183 -15.1371
ltibia 75.743
lfoot -1.42701 -3.55403
ltoes -24.5845
17
root 12.9761 16.8209 -24.5273 4.57554 -6.45285 5.17755
lowerback 15.2231 0.388621 -0.0491142
upperback 1.93252 0.611023 1.59294
thorax -6.50095 0.315281 1.59295
lowerneck -18.3146 -3.41349 -9.70558
upperneck 10.1484 -2.78841 4.21048
head 6.2553 -1.3924 2.61915
rclavicle 7.55382e-015 1.59028e-014
rhumerus -51.6053 8.4653 -86.9754
rradius 90.7884
rwrist -7.59471
rhand -18.5497 30.9818
rfingers 7.12502
rthumb 7.73979 1.14345
lclavicle 7.55382e-015 1.59028e-014
lhumerus -48.5115 0.120392 90.0099
lradius 86.9945
lwrist 26.4177
lhand -30.0834 24.9987
lfingers 7.12502
lthumb -3.398 54.9514
rfemur -24.6087 3.29672 28.3544
rtibia 49.7261
rfoot -17.8532 -13.0015
rtoes 0.994759
lfemur -22.7535 7.78743 -13.6764
ltibia 76.8802
lfoot -2.97795 -3.24974
ltoes -22.9555
18
root 12.869 16.7523 -23.9594 5.00118 -5.8256 4.54083
lowerback 14.7947 0.339268 0.453972
upperback 1.83496 0.633055 1.70349
thorax -6.36523 0.31527 1.42095
lowerneck -18.5269 -3.65743 -9.76952
upperneck 10.4292 -3.11679 4.44307
head 6.4086 -1.53631 2.66809
rclavicle -3.97569e-016 -1.74931e-014
rhumerus -50.9153 9.48699 -87.2863
rradius 92.165
rwrist -7.56534
rhand -18.3462 31.1434
rfingers 7.12502
rthumb 7.93619 1.31235
lclavicle -3.97569e-016 -1.74931e-014
lhumerus -49.6553 0.720623 89.4134
lradius 87.305
lwrist 26.6906
lhand -29.6613 24.5946
lfingers 7.12502
lthumb -2.9904 54.5534
rfemur -22.6429 3.60598 29.4158
rtibia 49.7622
rfoot -18.9257 -13.6887
rtoes 1.0019
lfemur -26.4483 8.02302 -12.9594
ltibia 77.4146
lfoot -4.51027 -2.87466
ltoes -15.4467
19
root 12.7696 16.6903 -23.3889 5.16014 -5.00729 4.37347
lowerback 14.6961 0.288996 0.627594
upperback 1.66042 0.597554 1.70451
thorax -6.49418 0.294586 1.33128
lowerneck -18.6962 -3.88085 -9.99486
upperneck 10.9478 -3.40031 4.76539
head 6.63497 -1.66091 2.77774
rclavicle 1.94809e-014 1.27222e-014
rhumerus -50.6322 10.338 -87.4817
rradius 93.718
rwrist -7.47059
rhand -18.5713 31.2693
rfingers 7.12502
rthumb 7.71896 1.43019
lclavicle 1.94809e-014 1.27222e-014
lhumerus -50.9926 0.999139 89.0814
lradius 87.8885
lwrist 27.3494
lhand -27.4726 20.1968
lfingers 7.12502
lthumb -0.876546 50.1748
rfemur -20.291 3.37379 30.0437
rtibia 49.4309
rfoot -19.8812 -14.3722
rtoes 0.693238
lfemur -29.6717 7.86232 -12.9631
ltibia 77.3503
lfoot -5.72492 -2.30188
ltoes -15.1382
20
root 12.6631 16.6574 -22.8134 5.23601 -4.07371 4.35308
lowerback 14.5624 0.241034 0.725658
upperback 1.56472 0.546803 1.65098
thorax -6.51972 0.267254 1.22934
lowerneck -18.6617 -4.11086 -10.1533
upperneck 11.1879 -3.72941 5.08853
head 6.74202 -1.80189 2.87224
rclavicle -2.22639e-014 -7.95139e-015
rhumerus -50.2655 11.025 -87.5781
rradius 95.5159
rwrist -8.06485
rhand -18.4547 31.5908
rfingers 7.12502
rthumb 7.83146 1.75589
lclavicle -2.22639e-014 -7.95139e-015
lhumerus -52.407 0.997162 88.9091
lradius 88.8808
lwrist 28.0467
lhand -24.0981 14.3637
lfingers 7.12502
lthumb 2.38266 44.3302
rfemur -17.7166 2.89044 30.5823
rtibia 48.748
rfoot -20.519 -15.3543
rtoes -1.75965
lfemur -32.6132 7.35016 -13.1944
ltibia 76.5737
lfoot -7.03243 -1.3766
ltoes -13.7259
21
root 12.5471 16.64 -22.2277 5.42074 -3.16776 4.21741
lowerback 14.1997 0.250317 1.0176
upperback 1.5244 0.591484 1.52903
thorax -6.35796 0.280505 0.926362
lowerneck -18.5951 -4.4547 -10.2923
upperneck 11.2841 -4.24227 5.55371
head 6.81648 -2.01581 2.98829
rclavicle -4.37326e-015 -9.54166e-015
rhumerus -49.8503 11.5931 -87.7982
rradius 97.0261
rwrist -7.57762
rhand -19.1974 31.6406
rfingers 7.12502
rthumb 7.11461 1.78015
lclavicle -4.37326e-015 -9.54166e-015
lhumerus -53.6027 0.547993 88.6858
lradius 90.0414
lwrist 28.9899
lhand -20.5241 9.68064
lfingers 7.12502
lthumb 5.83386 39.5803
rfemur -15.0452 2.39503 31.2882
rtibia 47.6084
rfoot -20.6088 -16.3498
rtoes -4.68204
lfemur -35.3966 6.72601 -13.2964
ltibia 75.1486
lfoot -8.53528 -0.549446
ltoes -11.8276
22
root 12.4269 16.6368 -21.6281 5.65007 -2.58285 3.98704
lowerback 13.8828 0.430058 1.31206
upperback 1.44027 0.862752 1.42325
thorax -6.26805 0.404521 0.597136
lowerneck -18.8899 -4.91557 -10.6648
upperneck 11.7322 -4.85135 6.17576
head 7.08752 -2.26999 3.17823
rclavicle -1.66979e-014 -1.74931e-014
rhumerus -49.6615 12.0067 -87.7896
rradius 98.868
rwrist -7.78631
rhand -19.2861 32.0005
rfingers 7.12502
rthumb 7.02898 2.13717
lclavicle -1.66979e-014 -1.74931e-014
lhumerus -54.5206 -0.00638989 88.4813
lradius 91.0572
lwrist 29.9491
lhand -17.7397 7.52292
lfingers 7.12502
lthumb 8.5215 37.331
rfemur -12.2169 2.0847 32.0569
rtibia 46.0955
rfoot -20.5246 -16.4445
rtoes -4.645
lfemur -37.8964 6.4667 -13.3489
ltibia 73.1476
lfoot -10.894 -0.322821
ltoes -15.8507
23
root 12.3099 16.6315 -21.0237 5.78929 -2.26906 3.6327
lowerback 13.6512 0.755867 1.68509
upperback 1.34155 1.34084 1.33371
thorax -6.23417 0.627382 0.203762
lowerneck -18.9363 -5.45136 -10.9308
upperneck 12.0996 -5.58306 6.57505
head 7.30006 -2.59899 3.2616
rclavicle -3.97569e-016 -2.06736e-014
rhumerus -49.8103 12.0295 -87.6656
rradius 101.019
rwrist -8.13481
rhand -19.2769 31.9114
rfingers 7.12502
rthumb 7.03786 2.04837
lclavicle -3.97569e-016 -2.06736e-014
lhumerus -55.3954 -0.789687 88.3631
lradius 91.9736
lwrist 30.5602
lhand -15.9155 6.44757
lfingers 7.12502
lthumb 10.2817 36.1763
rfemur -9.19835 1.89768 32.9057
rtibia 44.3924
rfoot -19.8392 -16.743
rtoes -5.10332
lfemur -40.0191 6.37136 -13.2655
ltibia 70.7239
lfoot -8.94452 0.961506
ltoes -6.46092
24
root 12.1999 16.6241 -20.4203 5.90207 -1.88296 3.44753
lowerback 13.4017 1.00461 1.87489
upperback 1.22879 1.69189 1.29428
thorax -6.20585 0.793572 -0.00667254
lowerneck -18.5027 -5.89922 -11.2349
upperneck 12.0629 -6.20243 6.82004
head 7.29078 -2.89488 3.31775
rclavicle 3.57812e-015 1.74931e-014
rhumerus -50.033 12.3007 -87.4677
rradius 102.876
rwrist -8.17922
rhand -19.2073 31.4558
rfingers 7.12502
rthumb 7.10502 1.59503
lclavicle 3.57812e-015 1.74931e-014
lhumerus -56.4004 -1.41269 88.4397
lradius 93.0504
lwrist 30.8383
lhand -16.5385 6.56836
lfingers 7.12502
lthumb 9.68063 36.3259
rfemur -6.15717 1.68112 33.525
rtibia 42.5045
rfoot -18.8378 -16.4319
rtoes -5.55925
lfemur -41.7901 5.80526 -13.2285
ltibia 67.9327
lfoot -11.9607 0.173518
ltoes -13.2447
25
root 12.0927 16.6136 -19.8119 6.13427 -1.51088 3.2442
lowerback 12.8374 1.24631 2.11485
upperback 1.23433 2.02731 1.25244
thorax -5.87211 0.955131 -0.233426
lowerneck -18.3771 -6.41406 -11.5082
upperneck 12.0908 -6.87672 6.99138
head 7.35857 -3.21683 3.3316
rclavicle -5.36719e-015 1.03368e-014
rhumerus -49.8644 12.8323 -87.1946
rradius 104.41
rwrist -8.19713
rhand -19.0988 31.4967
rfingers 7.12502
rthumb 7.20974 1.63953
lclavicle -5.36719e-015 1.03368e-014
lhumerus -57.2963 -1.96363 88.4825
lradius 94.2911
lwrist 30.8823
lhand -16.6859 6.70207
lfingers 7.12502
lthumb 9.53845 36.4662
rfemur -3.35812 1.66226 34.1831
rtibia 40.5675
rfoot -17.169 -16.1497
rtoes -7.44498
lfemur -43.2441 4.72657 -12.8173
ltibia 64.6891
lfoot -13.1866 -0.241471
ltoes -11.029
